<svg xmlns="http://www.w3.org/2000/svg" width="8.366" height="15.744" viewBox="0 0 8.366 15.744"><defs><style>.a{fill:#2ae88a;}.b{fill:#80f1af;}</style></defs><path class="a" d="M8.31,5.538a.461.461,0,0,0-.4-.24H6.232L6.993.535A.461.461,0,0,0,6.172.181L.1,8.066a.461.461,0,0,0,.365.743H3.1L1.33,15.162a.461.461,0,0,0,.832.373L8.293,6.009a.461.461,0,0,0,.017-.471Zm0,0" transform="translate(0 -0.001)"/><path class="b" d="M140.15,5.538a.461.461,0,0,0-.4-.24h-1.674l.761-4.763a.461.461,0,0,0-.821-.354l-1.988,2.581v9.634l4.11-6.386a.461.461,0,0,0,.017-.471Zm0,0" transform="translate(-131.84 -0.001)"/></svg>